<mxfile host="app.diagrams.net" agent="Mozilla/5.0 (Windows NT 10.0; Win64; x64) AppleWebKit/537.36 (KHTML, like Gecko) Chrome/139.0.0.0 Safari/537.36" version="28.1.1">
  <diagram name="Page-1" id="ioLnwhf9lXZyP83GPHjr">
    <mxGraphModel dx="2037" dy="453" grid="1" gridSize="10" guides="1" tooltips="1" connect="1" arrows="1" fold="1" page="1" pageScale="1" pageWidth="1200" pageHeight="1920" math="0" shadow="0">
      <root>
        <mxCell id="0" />
        <mxCell id="1" parent="0" />
        <mxCell id="_WdwyP6aC4HmKLqly4qT-1" value="" style="ellipse;fillColor=strokeColor;" vertex="1" parent="1">
          <mxGeometry x="110" y="20" width="14" height="14" as="geometry" />
        </mxCell>
        <mxCell id="_WdwyP6aC4HmKLqly4qT-2" value="Starting" style="rounded=1;arcSize=20;strokeWidth=2" vertex="1" parent="1">
          <mxGeometry x="81" y="108" width="72" height="40" as="geometry" />
        </mxCell>
        <mxCell id="_WdwyP6aC4HmKLqly4qT-3" value="Building" style="rounded=1;arcSize=20;strokeWidth=2" vertex="1" parent="1">
          <mxGeometry x="267" y="223" width="73" height="40" as="geometry" />
        </mxCell>
        <mxCell id="_WdwyP6aC4HmKLqly4qT-4" value="Creating" style="rounded=1;arcSize=20;strokeWidth=2" vertex="1" parent="1">
          <mxGeometry x="265" y="337" width="76" height="40" as="geometry" />
        </mxCell>
        <mxCell id="_WdwyP6aC4HmKLqly4qT-5" value="Starting_Services" style="rounded=1;arcSize=20;strokeWidth=2" vertex="1" parent="1">
          <mxGeometry x="234" y="452" width="139" height="40" as="geometry" />
        </mxCell>
        <mxCell id="_WdwyP6aC4HmKLqly4qT-6" value="MongoDB_Ready" style="rounded=1;arcSize=20;strokeWidth=2" vertex="1" parent="1">
          <mxGeometry x="428" y="566" width="131" height="40" as="geometry" />
        </mxCell>
        <mxCell id="_WdwyP6aC4HmKLqly4qT-7" value="App_Ready" style="rounded=1;arcSize=20;strokeWidth=2" vertex="1" parent="1">
          <mxGeometry x="283" y="566" width="93" height="40" as="geometry" />
        </mxCell>
        <mxCell id="_WdwyP6aC4HmKLqly4qT-8" value="Nginx_Ready" style="rounded=1;arcSize=20;strokeWidth=2" vertex="1" parent="1">
          <mxGeometry x="64" y="566" width="105" height="40" as="geometry" />
        </mxCell>
        <mxCell id="_WdwyP6aC4HmKLqly4qT-9" value="All_Ready" style="rounded=1;arcSize=20;strokeWidth=2" vertex="1" parent="1">
          <mxGeometry x="284" y="681" width="84" height="40" as="geometry" />
        </mxCell>
        <mxCell id="_WdwyP6aC4HmKLqly4qT-10" value="Healthy" style="rounded=1;arcSize=20;strokeWidth=2" vertex="1" parent="1">
          <mxGeometry x="291" y="795" width="71" height="40" as="geometry" />
        </mxCell>
        <mxCell id="_WdwyP6aC4HmKLqly4qT-11" value="Running" style="rounded=1;arcSize=20;strokeWidth=2" vertex="1" parent="1">
          <mxGeometry x="362" y="910" width="72" height="40" as="geometry" />
        </mxCell>
        <mxCell id="_WdwyP6aC4HmKLqly4qT-12" value="Degraded" style="rounded=1;arcSize=20;strokeWidth=2" vertex="1" parent="1">
          <mxGeometry x="134" y="1024" width="84" height="40" as="geometry" />
        </mxCell>
        <mxCell id="_WdwyP6aC4HmKLqly4qT-13" value="Failed" style="rounded=1;arcSize=20;strokeWidth=2" vertex="1" parent="1">
          <mxGeometry x="58" y="1138" width="59" height="40" as="geometry" />
        </mxCell>
        <mxCell id="_WdwyP6aC4HmKLqly4qT-14" value="Stopping" style="rounded=1;arcSize=20;strokeWidth=2" vertex="1" parent="1">
          <mxGeometry x="450" y="1024" width="78" height="40" as="geometry" />
        </mxCell>
        <mxCell id="_WdwyP6aC4HmKLqly4qT-15" value="" style="ellipse;shape=endState;fillColor=strokeColor;" vertex="1" parent="1">
          <mxGeometry x="482" y="1151" width="14" height="14" as="geometry" />
        </mxCell>
        <mxCell id="_WdwyP6aC4HmKLqly4qT-16" value="🚀 docker-compose up" style="curved=1;startArrow=none;;exitX=0.51;exitY=1;entryX=0.5;entryY=0.01;rounded=0;" edge="1" parent="1" source="_WdwyP6aC4HmKLqly4qT-1" target="_WdwyP6aC4HmKLqly4qT-2">
          <mxGeometry relative="1" as="geometry">
            <Array as="points" />
          </mxGeometry>
        </mxCell>
        <mxCell id="_WdwyP6aC4HmKLqly4qT-17" value="🔨 Building Images" style="curved=1;startArrow=none;;exitX=1;exitY=0.79;entryX=0.5;entryY=0;rounded=0;" edge="1" parent="1" source="_WdwyP6aC4HmKLqly4qT-2" target="_WdwyP6aC4HmKLqly4qT-3">
          <mxGeometry relative="1" as="geometry">
            <Array as="points">
              <mxPoint x="304" y="186" />
            </Array>
          </mxGeometry>
        </mxCell>
        <mxCell id="_WdwyP6aC4HmKLqly4qT-18" value="📦 Creating Containers" style="curved=1;startArrow=none;;exitX=0.5;exitY=1;entryX=0.51;entryY=0.01;rounded=0;" edge="1" parent="1" source="_WdwyP6aC4HmKLqly4qT-3" target="_WdwyP6aC4HmKLqly4qT-4">
          <mxGeometry relative="1" as="geometry">
            <Array as="points" />
          </mxGeometry>
        </mxCell>
        <mxCell id="_WdwyP6aC4HmKLqly4qT-19" value="⚡ Starting Services" style="curved=1;startArrow=none;;exitX=0.51;exitY=1.01;entryX=0.5;entryY=-0.01;rounded=0;" edge="1" parent="1" source="_WdwyP6aC4HmKLqly4qT-4" target="_WdwyP6aC4HmKLqly4qT-5">
          <mxGeometry relative="1" as="geometry">
            <Array as="points" />
          </mxGeometry>
        </mxCell>
        <mxCell id="_WdwyP6aC4HmKLqly4qT-20" value="🗄️ MongoDB (27017)" style="curved=1;startArrow=none;;exitX=0.98;exitY=0.99;entryX=0.5;entryY=0.01;rounded=0;" edge="1" parent="1" source="_WdwyP6aC4HmKLqly4qT-5" target="_WdwyP6aC4HmKLqly4qT-6">
          <mxGeometry relative="1" as="geometry">
            <Array as="points">
              <mxPoint x="493" y="529" />
            </Array>
          </mxGeometry>
        </mxCell>
        <mxCell id="_WdwyP6aC4HmKLqly4qT-21" value="⚡ Node.js (3000)" style="curved=1;startArrow=none;;exitX=0.57;exitY=0.99;entryX=0.5;entryY=0.01;rounded=0;" edge="1" parent="1" source="_WdwyP6aC4HmKLqly4qT-5" target="_WdwyP6aC4HmKLqly4qT-7">
          <mxGeometry relative="1" as="geometry">
            <Array as="points">
              <mxPoint x="330" y="529" />
            </Array>
          </mxGeometry>
        </mxCell>
        <mxCell id="_WdwyP6aC4HmKLqly4qT-22" value="🔄 Nginx (80)" style="curved=1;startArrow=none;;exitX=0.03;exitY=0.99;entryX=0.5;entryY=0.01;rounded=0;" edge="1" parent="1" source="_WdwyP6aC4HmKLqly4qT-5" target="_WdwyP6aC4HmKLqly4qT-8">
          <mxGeometry relative="1" as="geometry">
            <Array as="points">
              <mxPoint x="117" y="529" />
            </Array>
          </mxGeometry>
        </mxCell>
        <mxCell id="_WdwyP6aC4HmKLqly4qT-23" value="" style="curved=1;startArrow=none;;exitX=0.5;exitY=1.01;entryX=1.01;entryY=0.13;rounded=0;" edge="1" parent="1" source="_WdwyP6aC4HmKLqly4qT-6" target="_WdwyP6aC4HmKLqly4qT-9">
          <mxGeometry relative="1" as="geometry">
            <Array as="points">
              <mxPoint x="493" y="643" />
            </Array>
          </mxGeometry>
        </mxCell>
        <mxCell id="_WdwyP6aC4HmKLqly4qT-24" value="" style="curved=1;startArrow=none;;exitX=0.5;exitY=1.01;entryX=0.52;entryY=-0.01;rounded=0;" edge="1" parent="1" source="_WdwyP6aC4HmKLqly4qT-7" target="_WdwyP6aC4HmKLqly4qT-9">
          <mxGeometry relative="1" as="geometry">
            <Array as="points">
              <mxPoint x="330" y="643" />
            </Array>
          </mxGeometry>
        </mxCell>
        <mxCell id="_WdwyP6aC4HmKLqly4qT-25" value="" style="curved=1;startArrow=none;;exitX=0.5;exitY=1.01;entryX=0;entryY=0.2;rounded=0;" edge="1" parent="1" source="_WdwyP6aC4HmKLqly4qT-8" target="_WdwyP6aC4HmKLqly4qT-9">
          <mxGeometry relative="1" as="geometry">
            <Array as="points">
              <mxPoint x="117" y="643" />
            </Array>
          </mxGeometry>
        </mxCell>
        <mxCell id="_WdwyP6aC4HmKLqly4qT-26" value="✅ Health Checks Pass" style="curved=1;startArrow=none;;exitX=0.51;exitY=0.99;entryX=0.5;entryY=0;rounded=0;" edge="1" parent="1" source="_WdwyP6aC4HmKLqly4qT-9" target="_WdwyP6aC4HmKLqly4qT-10">
          <mxGeometry relative="1" as="geometry">
            <Array as="points" />
          </mxGeometry>
        </mxCell>
        <mxCell id="_WdwyP6aC4HmKLqly4qT-27" value="🟢 System Operational" style="curved=1;startArrow=none;;exitX=1;exitY=0.83;entryX=0.9;entryY=-0.01;rounded=0;" edge="1" parent="1" source="_WdwyP6aC4HmKLqly4qT-10" target="_WdwyP6aC4HmKLqly4qT-11">
          <mxGeometry relative="1" as="geometry">
            <Array as="points">
              <mxPoint x="481" y="872" />
            </Array>
          </mxGeometry>
        </mxCell>
        <mxCell id="_WdwyP6aC4HmKLqly4qT-28" value="🔄 Monitoring OK" style="curved=1;startArrow=none;;exitX=0.08;exitY=-0.01;entryX=0.42;entryY=1;rounded=0;" edge="1" parent="1" source="_WdwyP6aC4HmKLqly4qT-11" target="_WdwyP6aC4HmKLqly4qT-10">
          <mxGeometry relative="1" as="geometry">
            <Array as="points">
              <mxPoint x="311" y="872" />
            </Array>
          </mxGeometry>
        </mxCell>
        <mxCell id="_WdwyP6aC4HmKLqly4qT-29" value="⚠️ Issues Detected" style="curved=1;startArrow=none;;exitX=0;exitY=0.78;entryX=0.69;entryY=0;rounded=0;" edge="1" parent="1" source="_WdwyP6aC4HmKLqly4qT-11" target="_WdwyP6aC4HmKLqly4qT-12">
          <mxGeometry relative="1" as="geometry">
            <Array as="points">
              <mxPoint x="221" y="987" />
            </Array>
          </mxGeometry>
        </mxCell>
        <mxCell id="_WdwyP6aC4HmKLqly4qT-30" value="🔧 Auto Recovery" style="curved=1;startArrow=none;;exitX=0.21;exitY=0;entryX=0;entryY=0.73;rounded=0;" edge="1" parent="1" source="_WdwyP6aC4HmKLqly4qT-12" target="_WdwyP6aC4HmKLqly4qT-10">
          <mxGeometry relative="1" as="geometry">
            <Array as="points">
              <mxPoint x="107" y="987" />
              <mxPoint x="107" y="872" />
            </Array>
          </mxGeometry>
        </mxCell>
        <mxCell id="_WdwyP6aC4HmKLqly4qT-31" value="❌ Max Retries" style="curved=1;startArrow=none;;exitX=0.5;exitY=1;entryX=1;entryY=0.04;rounded=0;" edge="1" parent="1" source="_WdwyP6aC4HmKLqly4qT-12" target="_WdwyP6aC4HmKLqly4qT-13">
          <mxGeometry relative="1" as="geometry">
            <Array as="points">
              <mxPoint x="176" y="1101" />
            </Array>
          </mxGeometry>
        </mxCell>
        <mxCell id="_WdwyP6aC4HmKLqly4qT-32" value="🔄 Restart" style="curved=1;startArrow=none;;exitX=0.1;exitY=0.01;entryX=0.03;entryY=1.01;rounded=0;" edge="1" parent="1" source="_WdwyP6aC4HmKLqly4qT-13" target="_WdwyP6aC4HmKLqly4qT-2">
          <mxGeometry relative="1" as="geometry">
            <Array as="points">
              <mxPoint x="20" y="1101" />
              <mxPoint x="20" y="186" />
            </Array>
          </mxGeometry>
        </mxCell>
        <mxCell id="_WdwyP6aC4HmKLqly4qT-33" value="🛑 docker-compose down" style="curved=1;startArrow=none;;exitX=0.94;exitY=0.99;entryX=0.5;entryY=0;rounded=0;" edge="1" parent="1" source="_WdwyP6aC4HmKLqly4qT-11" target="_WdwyP6aC4HmKLqly4qT-14">
          <mxGeometry relative="1" as="geometry">
            <Array as="points">
              <mxPoint x="489" y="987" />
            </Array>
          </mxGeometry>
        </mxCell>
        <mxCell id="_WdwyP6aC4HmKLqly4qT-34" value="✅ Clean Shutdown" style="curved=1;startArrow=none;;exitX=0.5;exitY=1;entryX=0.49;entryY=0.03;rounded=0;" edge="1" parent="1" source="_WdwyP6aC4HmKLqly4qT-14" target="_WdwyP6aC4HmKLqly4qT-15">
          <mxGeometry relative="1" as="geometry">
            <Array as="points" />
          </mxGeometry>
        </mxCell>
      </root>
    </mxGraphModel>
  </diagram>
</mxfile>
